<svg id="_1976055_edit_edit_document_edit_file_edited_editing_icon" data-name="1976055_edit_edit document_edit file_edited_editing_icon" xmlns="http://www.w3.org/2000/svg" width="13.115" height="13.477" viewBox="0 0 13.115 13.477">
  <path id="Path_24" data-name="Path 24" d="M14.434,14.371a1.146,1.146,0,0,1-1.112,1.163h-8.9a1.146,1.146,0,0,1-1.112-1.163V5.219A1.113,1.113,0,0,1,4.423,4.094H9.613V3.332H4.423A1.866,1.866,0,0,0,2.569,5.22v9.151A1.9,1.9,0,0,0,4.423,16.3h8.9a1.9,1.9,0,0,0,1.854-1.925V9.051h-.742v5.319Z" transform="translate(-2.569 -2.819)"/>
  <path id="Path_25" data-name="Path 25" d="M17.157,2.971a1.461,1.461,0,0,0-2.018,0L10.353,7.757a.356.356,0,0,0-.094.166l-.5,2.018a.357.357,0,0,0,.346.444.347.347,0,0,0,.086-.011l2.018-.5a.353.353,0,0,0,.166-.094l4.786-4.786a1.426,1.426,0,0,0,0-2.018ZM11.937,9.2l-1.345.336.336-1.345,3.959-3.959L15.9,5.241Zm4.716-4.717-.252.252L15.391,3.727l.252-.252a.731.731,0,0,1,1.009,0,.713.713,0,0,1,0,1.009Z" transform="translate(-4.46 -2.566)"/>
</svg>
