<svg xmlns="http://www.w3.org/2000/svg" xmlns:xlink="http://www.w3.org/1999/xlink" width="157" height="42" viewBox="0 0 157 42">
  <defs>
    <clipPath id="clip-path">
      <rect id="Rectangle_1" data-name="Rectangle 1" width="157" height="42" fill="#fff"/>
    </clipPath>
  </defs>
  <g id="Logo-preto" clip-path="url(#clip-path)">
    <path id="Path_1" data-name="Path 1" d="M372.954,29.03a12.75,12.75,0,0,0-3.692-8.641,12.009,12.009,0,0,0-8.494-3.548H355.6V0H347.34V42.412h13.424a12.037,12.037,0,0,0,8.6-3.658,12.757,12.757,0,0,0,3.59-8.842S372.973,29.537,372.954,29.03Zm-8.816.507v4.241H355.6V25.3h8.543Z" transform="translate(-215.81)" fill-rule="evenodd"/>
    <path id="Path_2" data-name="Path 2" d="M140.795,11.777a11.958,11.958,0,0,0-3.348-8.331A11.284,11.284,0,0,0,129.359,0H114.45V42.367h14.909a11.271,11.271,0,0,0,8.089-3.45,12.065,12.065,0,0,0,2.147-13.587,11.633,11.633,0,0,0-3.359-4.147,11.738,11.738,0,0,0,3.359-4.165A11.992,11.992,0,0,0,140.795,11.777ZM131.672,33.79h-8.539V25.307h8.539Zm0-16.685h-8.539V8.623h8.539Z" transform="translate(-71.11)"/>
    <path id="Path_3" data-name="Path 3" d="M137.38,31.252h8.539V22.77H137.38Z" transform="translate(-85.357 -14.147)" fill="#ff5eb5"/>
    <path id="Path_4" data-name="Path 4" d="M369.14,75.312h8.543V66.83H369.14Z" transform="translate(-229.354 -41.523)" fill="#3763ff"/>
    <path id="Path_5" data-name="Path 5" d="M287.152,44.05v17h-8.543v-17H270.07V57.285a13.26,13.26,0,0,0,1.674,6.873,10.58,10.58,0,0,0,4.544,4.226,14.213,14.213,0,0,0,6.4,1.4,14.5,14.5,0,0,0,6.487-1.424,11.172,11.172,0,0,0,4.737-4.222,12.659,12.659,0,0,0,1.765-6.854V44.05Z" transform="translate(-167.8 -27.369)"/>
    <path id="Path_6" data-name="Path 6" d="M211.352,16.825h-7.543V0H195.27V42.37h8.539V25.307h7.543V42.37H219.9V0h-8.543Z" transform="translate(-121.325)"/>
    <path id="Path_7" data-name="Path 7" d="M10.732,56H0V66.6H10.732Z" transform="translate(0 -34.794)" fill="#3763ff"/>
    <path id="Path_8" data-name="Path 8" d="M10.732,84H0V94.6H10.732Z" transform="translate(0 -52.191)" fill="#ff5eb5"/>
    <path id="Path_9" data-name="Path 9" d="M67.4,56H56.67V66.6H67.4Z" transform="translate(-35.21 -34.794)" fill="#3763ff"/>
    <path id="Path_10" data-name="Path 10" d="M67.4,84H56.67V94.6H67.4Z" transform="translate(-35.21 -52.191)" fill="#ff5eb5"/>
    <path id="Path_11" data-name="Path 11" d="M39.068,56H28.34V66.6H39.068Z" transform="translate(-17.608 -34.794)" fill="#ff5eb5"/>
    <path id="Path_12" data-name="Path 12" d="M39.068,28H28.34V38.6H39.068Z" transform="translate(-17.608 -17.397)" fill="#3763ff"/>
    <path id="Path_13" data-name="Path 13" d="M39.068,0H28.34V10.6H39.068Z" transform="translate(-17.608)" fill="#ff5eb5"/>
  </g>
</svg>
